<svg xmlns="http://www.w3.org/2000/svg" viewBox="0 0 720 720" role="img" aria-label="Көңілді психолог иллюстрациясы">
  <defs>
    <linearGradient id="bg" x1="0" y1="0" x2="1" y2="1">
      <stop offset="0" stop-color="#e0f2fe"/>
      <stop offset="0.55" stop-color="#eef2ff"/>
      <stop offset="1" stop-color="#dbeafe"/>
    </linearGradient>
    <linearGradient id="coat" x1="0" y1="0" x2="1" y2="1">
      <stop offset="0" stop-color="#ffffff"/>
      <stop offset="1" stop-color="#e8f0ff"/>
    </linearGradient>
    <linearGradient id="accent" x1="0" y1="0" x2="1" y2="1">
      <stop offset="0" stop-color="#2563eb"/>
      <stop offset="1" stop-color="#6366f1"/>
    </linearGradient>
    <filter id="shadow" x="-20%" y="-20%" width="140%" height="140%">
      <feDropShadow dx="0" dy="18" stdDeviation="18" flood-color="#1e40af" flood-opacity="0.18"/>
    </filter>
  </defs>

  <rect width="720" height="720" rx="72" fill="url(#bg)"/>
  <circle cx="120" cy="140" r="70" fill="#93c5fd" opacity="0.35"/>
  <circle cx="610" cy="170" r="90" fill="#60a5fa" opacity="0.22"/>
  <circle cx="610" cy="560" r="110" fill="#a5b4fc" opacity="0.22"/>

  <g filter="url(#shadow)">
    <path d="M220 600c0-112 64-188 140-188s140 76 140 188v40H220z" fill="url(#coat)"/>
    <path d="M360 448c48 0 88-40 88-88v-8H272v8c0 48 40 88 88 88z" fill="#e2e8f0"/>
    <path d="M290 600c14-70 44-128 70-128s56 58 70 128" fill="none" stroke="url(#accent)" stroke-width="18" stroke-linecap="round"/>
  </g>

  <g filter="url(#shadow)">
    <path d="M262 310c0-88 44-140 98-140s98 52 98 140v40H262z" fill="#0f172a" opacity="0.08"/>
    <circle cx="360" cy="300" r="128" fill="#fde68a"/>
    <path d="M260 304c10-62 52-118 100-118s90 56 100 118c-32-16-66-24-100-24s-68 8-100 24z" fill="#1f2937" opacity="0.16"/>
    <path d="M268 270c14-66 58-118 92-118s78 52 92 118c-20-10-56-18-92-18s-72 8-92 18z" fill="#111827" opacity="0.22"/>

    <circle cx="312" cy="312" r="44" fill="#ffffff" opacity="0.9"/>
    <circle cx="408" cy="312" r="44" fill="#ffffff" opacity="0.9"/>
    <circle cx="322" cy="318" r="14" fill="#0f172a"/>
    <circle cx="418" cy="318" r="14" fill="#0f172a"/>
    <path d="M356 312h8" stroke="#0f172a" stroke-width="10" stroke-linecap="round"/>
    <path d="M268 312h-30" stroke="#1e40af" stroke-width="14" stroke-linecap="round"/>
    <path d="M452 312h30" stroke="#1e40af" stroke-width="14" stroke-linecap="round"/>
    <circle cx="312" cy="312" r="52" fill="none" stroke="#1e40af" stroke-width="14"/>
    <circle cx="408" cy="312" r="52" fill="none" stroke="#1e40af" stroke-width="14"/>

    <path d="M318 380c18 18 36 26 42 26s24-8 42-26" fill="none" stroke="#0f172a" stroke-width="12" stroke-linecap="round"/>
    <path d="M300 420c30 10 60 10 120 0" fill="none" stroke="#0f172a" stroke-width="10" opacity="0.12" stroke-linecap="round"/>
  </g>

  <g filter="url(#shadow)">
    <rect x="476" y="382" width="150" height="190" rx="22" fill="#ffffff" opacity="0.96"/>
    <rect x="494" y="410" width="114" height="10" rx="6" fill="#93c5fd"/>
    <rect x="494" y="435" width="88" height="10" rx="6" fill="#a5b4fc"/>
    <rect x="494" y="460" width="100" height="10" rx="6" fill="#93c5fd"/>
    <path d="M510 536c18-16 26-16 44 0 18 16 26 16 44 0" fill="none" stroke="url(#accent)" stroke-width="10" stroke-linecap="round"/>
    <circle cx="552" cy="394" r="18" fill="url(#accent)"/>
    <path d="M548 392h8" stroke="#fff" stroke-width="8" stroke-linecap="round"/>
    <path d="M552 388v12" stroke="#fff" stroke-width="8" stroke-linecap="round"/>
  </g>
</svg>

