<svg xmlns="http://www.w3.org/2000/svg" viewBox="0 0 1600 1000" preserveAspectRatio="xMidYMid slice" role="img" aria-label="Психология тақырыбындағы фон">
  <defs>
    <linearGradient id="g" x1="0" y1="0" x2="1" y2="1">
      <stop offset="0" stop-color="#e0f2fe"/>
      <stop offset="0.55" stop-color="#eef2ff"/>
      <stop offset="1" stop-color="#dbeafe"/>
    </linearGradient>
    <radialGradient id="r1" cx="30%" cy="25%" r="70%">
      <stop offset="0" stop-color="#60a5fa" stop-opacity="0.35"/>
      <stop offset="1" stop-color="#60a5fa" stop-opacity="0"/>
    </radialGradient>
    <radialGradient id="r2" cx="78%" cy="32%" r="70%">
      <stop offset="0" stop-color="#6366f1" stop-opacity="0.26"/>
      <stop offset="1" stop-color="#6366f1" stop-opacity="0"/>
    </radialGradient>
    <radialGradient id="r3" cx="62%" cy="82%" r="80%">
      <stop offset="0" stop-color="#93c5fd" stop-opacity="0.35"/>
      <stop offset="1" stop-color="#93c5fd" stop-opacity="0"/>
    </radialGradient>
    <pattern id="grid" width="44" height="44" patternUnits="userSpaceOnUse">
      <path d="M44 0H0V44" fill="none" stroke="#1e40af" stroke-opacity="0.08" stroke-width="1"/>
      <path d="M0 0H44" fill="none" stroke="#1e40af" stroke-opacity="0.05" stroke-width="1"/>
    </pattern>
    <filter id="soft" x="-20%" y="-20%" width="140%" height="140%">
      <feGaussianBlur stdDeviation="0.6"/>
    </filter>
  </defs>

  <rect width="1600" height="1000" fill="url(#g)"/>
  <rect width="1600" height="1000" fill="url(#grid)" opacity="0.55"/>
  <rect width="1600" height="1000" fill="url(#r1)"/>
  <rect width="1600" height="1000" fill="url(#r2)"/>
  <rect width="1600" height="1000" fill="url(#r3)"/>

  <g filter="url(#soft)" opacity="0.55" fill="none" stroke="#1e40af" stroke-opacity="0.18" stroke-width="2" stroke-linecap="round">
    <path d="M170 660c90-160 220-240 390-240s300 80 390 240"/>
    <path d="M130 540c120-190 300-290 520-290s400 100 520 290"/>
    <path d="M240 770c70-120 180-190 320-190s250 70 320 190"/>
  </g>

  <g opacity="0.46" fill="none" stroke="#2563eb" stroke-opacity="0.18" stroke-width="2.5" stroke-linecap="round">
    <path d="M1180 220c24 30 16 70-10 92-18 16-46 22-70 10-26-12-42-40-36-70 6-30 30-54 62-56 22-2 42 6 54 24z"/>
    <path d="M1138 308c-18 20-20 52-2 74 18 22 52 26 78 10 26-16 34-50 18-76-14-22-44-34-70-24"/>
    <path d="M1120 410c40 30 86 36 130 12"/>
    <path d="M1100 246c-12 40-2 72 24 96"/>
  </g>

  <g opacity="0.5" fill="none" stroke="#6366f1" stroke-opacity="0.16" stroke-width="2.5" stroke-linecap="round">
    <path d="M360 210c44 0 80 36 80 80s-36 80-80 80-80-36-80-80 36-80 80-80z"/>
    <path d="M360 250c22 0 40 18 40 40s-18 40-40 40-40-18-40-40 18-40 40-40z"/>
    <path d="M300 370c40 32 80 32 120 0"/>
    <path d="M280 290h-70"/>
    <path d="M510 290h70"/>
  </g>
</svg>

